<svg id="visual" viewBox="0 0 900 600" width="900" height="600" xmlns="http://www.w3.org/2000/svg" xmlns:xlink="http://www.w3.org/1999/xlink" version="1.1"><path d="M0 432L21.5 434.7C43 437.3 86 442.7 128.8 448.7C171.7 454.7 214.3 461.3 257.2 472C300 482.7 343 497.3 385.8 492.5C428.7 487.7 471.3 463.3 514.2 441.8C557 420.3 600 401.7 642.8 403.7C685.7 405.7 728.3 428.3 771.2 428C814 427.7 857 404.3 878.5 392.7L900 381L900 601L878.5 601C857 601 814 601 771.2 601C728.3 601 685.7 601 642.8 601C600 601 557 601 514.2 601C471.3 601 428.7 601 385.8 601C343 601 300 601 257.2 601C214.3 601 171.7 601 128.8 601C86 601 43 601 21.5 601L0 601Z" fill="#0066FF" stroke-linecap="round" stroke-linejoin="miter"></path></svg>